<svg width="32" height="23" viewBox="0 0 32 23" fill="none" xmlns="http://www.w3.org/2000/svg">
<path d="M30.283 3.83769C29.643 3.54855 28.3005 3.24626 26.4742 4.32397L24.1795 5.69088C24.0078 1.60345 21.9005 0 16.7805 0H7.41463C2.0761 0 0 1.748 0 6.24286V16.7571C0 19.78 1.95122 23 7.41463 23H16.7805C21.9005 23 24.0078 21.3965 24.1795 17.3091L26.4742 18.676C27.442 19.2543 28.2849 19.4383 28.9561 19.4383C29.5336 19.4383 29.9864 19.2937 30.283 19.1623C30.923 18.8863 32 18.1371 32 16.2577V6.74229C32 4.86286 30.923 4.11369 30.283 3.83769Z" fill="white"/>
</svg>
