<svg width="25" height="25" viewBox="0 0 25 25" fill="none" xmlns="http://www.w3.org/2000/svg">
<path d="M20.9778 7.65164L9.02276 1.70664C0.992236 -2.29373 -2.30377 0.984354 1.71847 8.9712L2.93353 11.3895C3.10578 11.7373 3.19536 12.1199 3.19536 12.5076C3.19536 12.8954 3.10578 13.278 2.93353 13.6258L1.71847 16.0288C-2.30377 24.0156 0.97827 27.2937 9.02276 23.2934L20.9778 17.3484C26.3407 14.6801 26.3407 10.3185 20.9778 7.65164ZM16.4667 13.5411H8.92499C8.64719 13.5411 8.38076 13.4313 8.18433 13.2359C7.98789 13.0406 7.87753 12.7756 7.87753 12.4993C7.87753 12.223 7.98789 11.958 8.18433 11.7627C8.38076 11.5673 8.64719 11.4575 8.92499 11.4575H16.4667C16.7445 11.4575 17.0109 11.5673 17.2074 11.7627C17.4038 11.958 17.5142 12.223 17.5142 12.4993C17.5142 12.7756 17.4038 13.0406 17.2074 13.2359C17.0109 13.4313 16.7445 13.5411 16.4667 13.5411Z" fill="white"/>
</svg>
