<svg width="20" height="20" viewBox="0 0 20 20" fill="none" xmlns="http://www.w3.org/2000/svg">
<path d="M15.6192 15.7088L19 19M1 9.41626C1.00031 7.18422 1.90881 5.04368 3.52565 3.46539C5.14249 1.8871 7.33527 1.0003 9.62183 1C10.7543 0.999852 11.8756 1.21747 12.9219 1.64043C13.9681 2.06339 14.9188 2.68341 15.7196 3.46506C16.5203 4.24672 17.1555 5.1747 17.5888 6.19601C18.0221 7.21732 18.245 8.31195 18.2449 9.41738C18.2449 10.5227 18.0218 11.6172 17.5884 12.6384C17.1551 13.6596 16.5199 14.5874 15.7191 15.369C14.9184 16.1505 13.9678 16.7704 12.9217 17.1933C11.8755 17.6162 10.7542 17.8338 9.62183 17.8336C7.33527 17.8333 5.14249 16.9465 3.52565 15.3682C1.90881 13.79 1.00031 11.6494 1 9.41738V9.41626Z" stroke="#A5A5A5" stroke-width="2" stroke-miterlimit="10" stroke-linecap="round" stroke-linejoin="round"/>
</svg>
