<svg width="24" height="24" viewBox="0 0 24 24" fill="none" xmlns="http://www.w3.org/2000/svg">
<path opacity="0.93" d="M12 0C9.62663 0 7.30655 0.703788 5.33316 2.02236C3.35977 3.34094 1.8217 5.21508 0.913451 7.4078C0.00519943 9.60051 -0.232441 12.0133 0.230582 14.3411C0.693605 16.6689 1.83649 18.807 3.51472 20.4853C5.19295 22.1635 7.33115 23.3064 9.65892 23.7694C11.9867 24.2324 14.3995 23.9948 16.5922 23.0865C18.7849 22.1783 20.6591 20.6402 21.9776 18.6668C23.2962 16.6934 24 14.3734 24 12C24 8.8174 22.7357 5.76515 20.4853 3.51472C18.2348 1.26428 15.1826 0 12 0ZM17.244 14.82L14.58 17.484C14.2763 17.7986 13.9129 18.0496 13.5112 18.2222C13.1094 18.3949 12.6773 18.4858 12.24 18.4897C11.8027 18.4935 11.369 18.4102 10.9643 18.2447C10.5596 18.0791 10.1918 17.8346 9.88263 17.5254C9.57342 17.2162 9.32889 16.8484 9.16332 16.4437C8.99776 16.039 8.91447 15.6053 8.91832 15.168C8.92217 14.7307 9.01308 14.2986 9.18575 13.8968C9.35842 13.4951 9.60939 13.1317 9.924 12.828L11.616 11.136C11.7866 10.977 12.0123 10.8905 12.2454 10.8946C12.4786 10.8987 12.7011 10.9932 12.8659 11.1581C13.0308 11.3229 13.1253 11.5454 13.1294 11.7786C13.1335 12.0117 13.047 12.2374 12.888 12.408L11.196 14.1C11.0556 14.2377 10.944 14.402 10.8678 14.5833C10.7915 14.7646 10.7522 14.9593 10.752 15.156C10.751 15.3529 10.7898 15.5479 10.8661 15.7293C10.9424 15.9108 11.0546 16.075 11.196 16.212C11.3353 16.3518 11.5008 16.4628 11.683 16.5385C11.8653 16.6142 12.0607 16.6532 12.258 16.6532C12.4554 16.6532 12.6508 16.6142 12.833 16.5385C13.0152 16.4628 13.1807 16.3518 13.32 16.212L15.984 13.548C16.6994 12.8126 17.0965 11.8251 17.0895 10.7991C17.0824 9.77318 16.6717 8.79125 15.9462 8.06577C15.2208 7.34029 14.2388 6.92959 13.2129 6.92252C12.1869 6.91545 11.1994 7.31258 10.464 8.028L7.56 10.932C7.25974 11.2285 7.02132 11.5816 6.8586 11.9709C6.69588 12.3603 6.61209 12.778 6.61209 13.2C6.61209 13.622 6.69588 14.0397 6.8586 14.4291C7.02132 14.8184 7.25974 15.1715 7.56 15.468C7.71898 15.6386 7.80553 15.8643 7.80141 16.0974C7.7973 16.3306 7.70285 16.553 7.53795 16.7179C7.37305 16.8828 7.15059 16.9773 6.91743 16.9814C6.68427 16.9855 6.45861 16.899 6.288 16.74C5.81406 16.2833 5.4378 15.7351 5.18202 15.1287C4.92624 14.5222 4.79628 13.8702 4.8 13.212C4.79674 12.5525 4.92447 11.8989 5.17578 11.2892C5.42709 10.6794 5.79699 10.1257 6.264 9.66L9.168 6.756C10.2374 5.68505 11.6883 5.08277 13.2018 5.08165C13.9511 5.08109 14.6933 5.22814 15.3858 5.51439C16.0784 5.80065 16.7077 6.22051 17.238 6.75C17.7683 7.27949 18.1891 7.90824 18.4764 8.60035C18.7636 9.29246 18.9118 10.0344 18.9124 10.7838C18.9129 11.5331 18.7659 12.2753 18.4796 12.9678C18.1933 13.6603 17.7735 14.2897 17.244 14.82Z" fill="#0A423D"/>
</svg>
