<svg width="4" height="18" viewBox="0 0 4 18" fill="none" xmlns="http://www.w3.org/2000/svg">
<path d="M2 4C3.10457 4 4 3.10457 4 2C4 0.89543 3.10457 0 2 0C0.89543 0 0 0.89543 0 2C0 3.10457 0.89543 4 2 4Z" fill="white"/>
<path d="M2 10.8C3.10457 10.8 4 9.90457 4 8.8C4 7.69543 3.10457 6.8 2 6.8C0.89543 6.8 0 7.69543 0 8.8C0 9.90457 0.89543 10.8 2 10.8Z" fill="white"/>
<path d="M2 17.6C3.10457 17.6 4 16.7046 4 15.6C4 14.4954 3.10457 13.6 2 13.6C0.89543 13.6 0 14.4954 0 15.6C0 16.7046 0.89543 17.6 2 17.6Z" fill="white"/>
</svg>
