<svg width="19" height="25" viewBox="0 0 19 25" fill="none" xmlns="http://www.w3.org/2000/svg">
<path fill-rule="evenodd" clip-rule="evenodd" d="M8.19927 21.5404V1.01351C8.19927 0.459457 8.65872 0 9.21278 0C9.76683 0 10.2263 0.459457 10.2263 1.01351V21.5404L16.6992 15.0675C17.0911 14.6756 17.7398 14.6756 18.1316 15.0675C18.5235 15.4594 18.5235 16.108 18.1316 16.4999L9.92899 24.7025C9.72629 24.9052 9.46953 24.9998 9.21278 24.9998C8.95602 24.9998 8.69927 24.9052 8.49657 24.7025L0.293917 16.4999C-0.0979723 16.108 -0.0979723 15.4594 0.293917 15.0675C0.685806 14.6756 1.33445 14.6756 1.72634 15.0675L8.19927 21.5404Z" fill="white"/>
</svg>
