<svg width="17" height="23" viewBox="0 0 17 23" fill="none" xmlns="http://www.w3.org/2000/svg">
<path opacity="0.4" d="M8.06438 0C6.63736 0.00456217 5.26934 0.570002 4.25554 1.5743C3.24175 2.5786 2.66345 3.94123 2.64545 5.36814C2.62745 6.79505 3.1712 8.17183 4.15934 9.20138C5.14749 10.2309 6.5008 10.8307 7.92725 10.8713C8.01086 10.8597 8.09565 10.8597 8.17926 10.8713H8.25635C9.67938 10.8187 11.025 10.2101 12.0041 9.17607C12.9832 8.14207 13.5176 6.76525 13.4924 5.34147C13.4673 3.91769 12.8846 2.56059 11.8696 1.5618C10.8547 0.563013 9.48837 0.00224349 8.06438 0V0Z" fill="#0A423D"/>
<path d="M13.8842 13.9184C12.1254 12.8724 10.1169 12.3204 8.07061 12.3204C6.02427 12.3204 4.01583 12.8724 2.25697 13.9184C1.601 14.2967 1.05059 14.8338 0.656236 15.4803C0.261887 16.1268 0.036238 16.862 0 17.6184C0.0353543 18.3706 0.259562 19.1017 0.651939 19.7443C1.04432 20.387 1.59222 20.9205 2.24511 21.2956C3.98684 22.3876 6.00889 22.9488 8.06431 22.9107C10.1197 22.9488 12.1418 22.3876 13.8835 21.2956C14.5373 20.9157 15.0853 20.378 15.4775 19.7316C15.8698 19.0852 16.0936 18.3508 16.1286 17.5955C16.0909 16.844 15.8657 16.1139 15.4737 15.4717C15.0817 14.8294 14.5353 14.2955 13.8842 13.9184Z" fill="#0A423D"/>
</svg>
