<svg width="32" height="31" viewBox="0 0 32 31" fill="none" xmlns="http://www.w3.org/2000/svg">
<path opacity="0.4" d="M29.3496 9.28887L19.2266 1.18987C18.2166 0.420581 16.9827 0.00272144 15.7131 1.32474e-05C14.4435 -0.00269495 13.2079 0.409896 12.1946 1.17487L2.0706 9.28887C1.32573 9.93961 0.751679 10.763 0.398662 11.6869C0.0456462 12.6109 -0.0755767 13.6072 0.0455991 14.5889L1.9936 26.2429C2.23955 27.5353 2.92179 28.7041 3.9262 29.5538C4.93061 30.4034 6.1963 30.8825 7.5116 30.9109H23.8936C25.209 30.8691 26.4715 30.3836 27.476 29.5334C28.4805 28.6832 29.168 27.5182 29.4266 26.2279L31.3746 14.5749C31.4801 13.5964 31.3515 12.6068 30.9994 11.6877C30.6473 10.7687 30.0819 9.94645 29.3496 9.28887Z" fill="white"/>
<path d="M15.7025 25.8876C15.3965 25.8853 15.1036 25.763 14.8869 25.547C14.6702 25.331 14.5469 25.0386 14.5435 24.7326V20.0916C14.5458 19.785 14.6687 19.4915 14.8855 19.2747C15.1024 19.0578 15.3958 18.935 15.7025 18.9326C16.0091 18.935 16.3025 19.0578 16.5194 19.2747C16.7362 19.4915 16.8591 19.785 16.8615 20.0916V24.7326C16.8581 25.0386 16.7347 25.331 16.518 25.547C16.3013 25.763 16.0084 25.8853 15.7025 25.8876Z" fill="white"/>
</svg>
