<svg width="26" height="26" viewBox="0 0 26 26" fill="none" xmlns="http://www.w3.org/2000/svg">
<path d="M25.85 3.88C25.85 4.64739 25.6225 5.39755 25.1962 6.03561C24.7698 6.67368 24.1637 7.17099 23.4547 7.46465C22.7457 7.75832 21.9657 7.83516 21.213 7.68545C20.4604 7.53574 19.7691 7.1662 19.2264 6.62358C18.6838 6.08095 18.3144 5.3896 18.1647 4.63695C18.015 3.88431 18.0917 3.10417 18.3854 2.39519C18.679 1.68621 19.1763 1.08024 19.8143 0.6539C20.4524 0.22756 21.2027 0 21.9701 0C22.9991 0 23.9859 0.408784 24.7135 1.13643C25.4411 1.86407 25.85 2.85096 25.85 3.88Z" fill="#FF6464"/>
<path d="M23 9.58965H22.9299L22.5298 9.65965C21.9551 9.71009 21.3761 9.67979 20.8098 9.56965C20.6637 9.54039 20.52 9.50028 20.3799 9.44965C19.9576 9.34746 19.5531 9.18227 19.1799 8.95966C19.0231 8.88156 18.8727 8.79129 18.73 8.68966C18.1081 8.26768 17.5719 7.73153 17.1499 7.10965C17.0504 6.96554 16.9602 6.81524 16.8799 6.65965C16.659 6.28565 16.4939 5.88138 16.3899 5.45966C16.3393 5.3195 16.299 5.17577 16.2698 5.02966C16.1596 4.46333 16.1295 3.88438 16.1799 3.30966L16.24 2.90965C16.24 2.90965 16.24 2.85966 16.24 2.82966C16.308 2.49557 16.2409 2.14815 16.0535 1.86333C15.8661 1.57851 15.5737 1.37945 15.24 1.30966C15.1536 1.29983 15.0664 1.29983 14.98 1.30966H7.11987C6.94336 1.29913 6.76635 1.29913 6.58984 1.30966C6.43669 1.2993 6.28304 1.2993 6.12988 1.30966L5.67993 1.36966C4.25118 1.50514 2.91423 2.13444 1.89941 3.14925C0.884601 4.16407 0.255352 5.5009 0.119873 6.92965C0.0894082 7.07807 0.0693007 7.22844 0.0598145 7.37965L7.01084e-09 7.83965C7.01084e-09 7.98965 7.01084e-09 8.18966 7.01084e-09 8.36966V18.7197C7.01084e-09 18.8997 7.01084e-09 19.0797 7.01084e-09 19.2497C7.01084e-09 19.4197 -0.000185538 19.5497 0.0598145 19.6997L0.119873 20.1597C0.255722 21.59 0.88648 22.928 1.90332 23.943C2.92016 24.958 4.2594 25.5864 5.68994 25.7197C5.82994 25.7197 5.98989 25.7197 6.13989 25.7797H6.59985C6.77635 25.7905 6.95338 25.7905 7.12988 25.7797H17.3899C17.5664 25.7899 17.7434 25.7899 17.9199 25.7797C18.0697 25.7906 18.2201 25.7906 18.3699 25.7797L18.8198 25.7197C20.2493 25.586 21.5871 24.9573 22.6023 23.9422C23.6175 22.927 24.2463 21.5891 24.3799 20.1597C24.4145 20.0082 24.4379 19.8545 24.45 19.6997C24.45 19.5497 24.45 19.3997 24.45 19.2497C24.45 19.0997 24.45 18.8997 24.45 18.7197V10.8597C24.45 10.5175 24.3139 10.1894 24.072 9.94749C23.8301 9.70557 23.502 9.56965 23.1599 9.56965C23.1062 9.57281 23.0528 9.57949 23 9.58965ZM6.12988 13.5897H12.5999C12.8161 13.6438 13.0081 13.7687 13.1453 13.9445C13.2824 14.1202 13.3567 14.3367 13.3567 14.5597C13.3567 14.7826 13.2824 14.9991 13.1453 15.1748C13.0081 15.3506 12.8161 15.4755 12.5999 15.5297H6.12988C5.98243 15.5666 5.82841 15.5695 5.67969 15.538C5.53096 15.5065 5.39158 15.4416 5.27173 15.348C5.15188 15.2545 5.05472 15.1349 4.98804 14.9983C4.92136 14.8617 4.88672 14.7117 4.88672 14.5597C4.88672 14.4076 4.92136 14.2576 4.98804 14.121C5.05472 13.9844 5.15188 13.8648 5.27173 13.7713C5.39158 13.6777 5.53096 13.6128 5.67969 13.5813C5.82841 13.5498 5.98243 13.5527 6.12988 13.5897ZM17.7698 20.7197H6.12988C5.98243 20.7566 5.82841 20.7595 5.67969 20.728C5.53096 20.6965 5.39158 20.6316 5.27173 20.538C5.15188 20.4445 5.05472 20.3249 4.98804 20.1883C4.92136 20.0517 4.88672 19.9017 4.88672 19.7497C4.88672 19.5976 4.92136 19.4476 4.98804 19.311C5.05472 19.1744 5.15188 19.0548 5.27173 18.9613C5.39158 18.8678 5.53096 18.8028 5.67969 18.7713C5.82841 18.7399 5.98243 18.7427 6.12988 18.7797H17.7698C17.986 18.8338 18.1781 18.9587 18.3152 19.1345C18.4523 19.3102 18.5269 19.5267 18.5269 19.7497C18.5269 19.9726 18.4523 20.1891 18.3152 20.3648C18.1781 20.5406 17.986 20.6655 17.7698 20.7197Z" fill="white"/>
</svg>
