<svg width="23" height="32" viewBox="0 0 23 32" fill="none" xmlns="http://www.w3.org/2000/svg">
<path d="M22.3217 9.49612C21.8966 6.84879 20.5429 4.43928 18.503 2.69924C16.4631 0.959198 13.8703 0.00231182 11.189 8.52308e-07C9.39261 -0.000701204 7.62257 0.432326 6.02935 1.26228C4.43613 2.09223 3.06685 3.29457 2.03787 4.76711C1.22911 5.85021 0.642479 7.08253 0.311719 8.39318C-0.0190414 9.70383 -0.0874009 11.0669 0.110573 12.4041C0.521244 14.4419 1.25589 16.4008 2.28656 18.2061C4.36622 22.1413 6.73312 25.9179 9.36803 29.5051C9.95364 30.3274 10.5713 31.1316 11.1991 32C11.3294 31.8396 11.3996 31.7593 11.4678 31.6691C13.2728 29.08 15.1038 26.5209 16.8386 23.8937C18.647 21.2143 20.1861 18.3626 21.4332 15.3803C22.2777 13.5425 22.585 11.5032 22.3196 9.49812L22.3217 9.49612ZM18.9524 12.2818C18.8387 13.0509 18.6102 13.7986 18.2745 14.4999C18.2304 14.5921 18.1849 14.683 18.1381 14.7726L18.1261 14.7947C18.0807 14.8816 18.0332 14.9672 17.9837 15.0514L17.9597 15.1015C17.9115 15.1844 17.8614 15.266 17.8092 15.3462L17.7872 15.3803C17.7364 15.4592 17.6842 15.5374 17.6308 15.6149L17.6047 15.643C17.5512 15.7192 17.4964 15.7948 17.4402 15.8696L17.4122 15.9057C17.356 15.9799 17.2978 16.0521 17.2377 16.1243L17.2116 16.1564C17.1501 16.23 17.0879 16.3015 17.0251 16.371L17.005 16.3911C16.9389 16.4653 16.8707 16.5375 16.8045 16.6077C16.4441 16.9751 16.0484 17.3063 15.6232 17.5964L15.5651 17.6485L15.3766 17.7709L15.2843 17.829L15.1078 17.9313L14.9935 17.9975L14.8311 18.0797L14.7027 18.1459L14.5382 18.2241L14.3979 18.2883L14.2294 18.3605L14.079 18.4207L13.9185 18.4828L13.7601 18.539L13.5997 18.5911L13.4272 18.6513L13.2688 18.6974L13.0943 18.7415L12.9378 18.7796L12.7553 18.8177L12.6009 18.8478L12.4004 18.8799L12.252 18.902L12.0514 18.926L11.911 18.9421L11.6784 18.9581H11.5601C11.4417 18.9581 11.3234 18.9581 11.2051 18.9581C11.0747 18.9581 10.9464 18.9581 10.818 18.9581H10.6917L10.437 18.9381L10.2886 18.92L10.0599 18.8899L9.90952 18.8518L9.69292 18.8137L9.53449 18.7816L9.33394 18.7335L9.17951 18.6934L8.97896 18.6332L8.81451 18.5871L8.61396 18.5169L8.47357 18.4668L8.25497 18.3805L8.12261 18.3304C8.03035 18.2903 7.9381 18.2482 7.84785 18.2041L7.78969 18.178C7.68139 18.1245 7.57443 18.069 7.46881 18.0115L7.3565 17.9474L7.15595 17.829L7.02559 17.7488L6.8491 17.6345L6.71674 17.5422L6.55429 17.4259L6.42393 17.3256L6.26951 17.2033L6.14116 17.095L5.99475 16.9667L5.87041 16.8463L5.73003 16.71L5.60568 16.6017L5.47533 16.4452L5.36502 16.3369C5.31488 16.2808 5.26876 16.2246 5.22063 16.1685L5.13038 16.0622C5.05684 15.9713 4.98598 15.879 4.91779 15.7854L4.82353 15.643C4.78543 15.5889 4.74732 15.5347 4.71122 15.4806C4.67513 15.4264 4.64705 15.3823 4.61696 15.3322C4.58688 15.282 4.55078 15.2279 4.51869 15.1737C4.48661 15.1196 4.45853 15.0694 4.42845 15.0173C4.39836 14.9652 4.36828 14.911 4.3402 14.8589C4.31213 14.8067 4.28204 14.7506 4.25597 14.6964L4.17575 14.536L4.09152 14.3795C4.06745 14.3254 4.04339 14.2692 4.01932 14.2151C3.99526 14.1609 3.97119 14.1008 3.94712 14.0386C3.92306 13.9764 3.903 13.9263 3.88295 13.8701C3.86289 13.814 3.83883 13.7538 3.81877 13.6937C3.79871 13.6335 3.78067 13.5793 3.76262 13.5212C3.74457 13.463 3.72451 13.4029 3.70646 13.3427C3.68841 13.2825 3.67437 13.2224 3.65833 13.1622C3.64228 13.102 3.62624 13.0439 3.6102 12.9837C3.58212 12.8714 3.55672 12.7551 3.53399 12.6347C3.52195 12.5746 3.51193 12.5124 3.5019 12.4502C3.49187 12.3881 3.48184 12.3399 3.47382 12.2858C3.41576 11.8699 3.39095 11.4501 3.39962 11.0303C3.40262 10.6948 3.42741 10.3599 3.47382 10.0276C3.47382 10.0276 3.47382 10.0095 3.47382 10.0015C3.47382 9.99348 3.47382 9.94736 3.48786 9.91928L3.49989 9.84908C3.51861 9.74079 3.53867 9.63316 3.56006 9.5262C3.90488 7.89081 4.76448 6.40889 6.01288 5.29764C7.26128 4.18639 8.83282 3.50425 10.4971 3.35122H10.6335L10.8702 3.33517H10.8942H11.0747H11.2131H11.2312H11.4457H11.5901L11.8228 3.35122H11.9471C12.0534 3.35122 12.1597 3.37328 12.266 3.38732H12.3362C12.4405 3.40135 12.5367 3.4194 12.645 3.43745L12.7854 3.46553L12.986 3.50765L13.1464 3.54776L13.3189 3.59188L13.4874 3.64202L13.6478 3.69215L13.8203 3.75232L13.9687 3.81048L14.1432 3.88067L14.2835 3.93683L14.462 4.01705L14.5924 4.07721L14.7709 4.16746L14.8932 4.22963L15.0737 4.32991L15.186 4.39408L15.3665 4.50439L15.4688 4.57057L15.6493 4.6909L15.7436 4.75708L15.9241 4.88945L16.0083 4.95362L16.1888 5.09802L16.265 5.16019L16.4455 5.31662L16.5117 5.37679L16.6902 5.54726L16.7483 5.60542L16.9268 5.78792L16.9749 5.84006C17.0351 5.90557 17.0939 5.97242 17.1514 6.04061L17.1915 6.08674C17.2504 6.15626 17.3085 6.22713 17.366 6.29932L17.3961 6.33743C17.4549 6.4123 17.5124 6.48918 17.5686 6.56806L17.5886 6.59815C17.6461 6.6797 17.703 6.7626 17.7591 6.84683L17.7691 6.86287C17.8266 6.95112 17.8828 7.0407 17.9376 7.13161C18.4601 8.00572 18.8056 8.97404 18.9544 9.98145C19.0658 10.7375 19.0658 11.5057 18.9544 12.2617" fill="white"/>
<path d="M16.8608 10.4065C16.8608 10.4065 12.6292 10.1738 11.2133 10.1738C9.79738 10.1738 5.56575 10.4065 5.56575 10.4065C5.42524 10.408 5.29082 10.4641 5.19091 10.5629C5.09099 10.6617 5.03339 10.7954 5.03027 10.9359C5.03027 11.0041 5.03027 11.071 5.03027 11.1365C5.03027 11.202 5.03027 11.2688 5.03027 11.337C5.03339 11.4775 5.09099 11.6113 5.19091 11.7101C5.29082 11.8089 5.42524 11.865 5.56575 11.8665C5.56575 11.8665 9.80139 12.0991 11.2133 12.0991C12.6252 12.0991 16.8608 11.8785 16.8608 11.8785C17.0012 11.8765 17.1353 11.8202 17.2351 11.7216C17.3349 11.6229 17.3927 11.4894 17.3963 11.3491C17.3963 11.2809 17.3963 11.214 17.3963 11.1485C17.3963 11.083 17.3963 11.0161 17.3963 10.948C17.3927 10.8076 17.3349 10.6742 17.2351 10.5755C17.1353 10.4768 17.0012 10.4205 16.8608 10.4185" fill="white"/>
</svg>
