<svg width="31" height="31" viewBox="0 0 31 31" fill="none" xmlns="http://www.w3.org/2000/svg">
<path opacity="0.4" d="M26.827 10.0602C26.044 10.0604 25.2686 9.90641 24.5451 9.60688C23.8217 9.30735 23.1643 8.86821 22.6106 8.31453C22.057 7.76086 21.6178 7.10351 21.3183 6.38004C21.0188 5.65658 20.8647 4.88119 20.865 4.09818C20.8694 3.0477 21.1579 2.01799 21.7 1.11818H7.452C5.47975 1.11472 3.58684 1.89462 2.18943 3.2864C0.792027 4.67818 0.00450409 6.56792 0 8.54018L0 18.9402C0.00450409 20.9124 0.792027 22.8022 2.18943 24.194C3.58684 25.5857 5.47975 26.3656 7.452 26.3622H9.688C9.91672 26.3773 10.1401 26.4383 10.3448 26.5413C10.5496 26.6444 10.7316 26.7875 10.88 26.9622L13.116 29.9282C13.3071 30.2295 13.5713 30.4776 13.884 30.6496C14.1966 30.8215 14.5477 30.9116 14.9045 30.9116C15.2613 30.9116 15.6124 30.8215 15.925 30.6496C16.2377 30.4776 16.5019 30.2295 16.693 29.9282L18.929 26.9622C19.0685 26.7776 19.2485 26.6275 19.4552 26.5235C19.6618 26.4194 19.8896 26.3642 20.121 26.3622H22.357C24.3293 26.3656 26.2222 25.5857 27.6196 24.194C29.017 22.8022 29.8045 20.9124 29.809 18.9402V9.22618C28.9085 9.76825 27.8781 10.0564 26.827 10.0602Z" fill="white"/>
<path d="M30.929 4.1C30.929 4.9109 30.6885 5.7036 30.238 6.37784C29.7875 7.05208 29.1472 7.57759 28.398 7.88791C27.6488 8.19823 26.8245 8.27942 26.0291 8.12122C25.2338 7.96302 24.5033 7.57253 23.9299 6.99914C23.3565 6.42574 22.966 5.69519 22.8078 4.89987C22.6496 4.10455 22.7308 3.28017 23.0411 2.531C23.3514 1.78182 23.8769 1.14149 24.5512 0.690975C25.2254 0.240461 26.0181 0 26.829 0C27.9164 0 28.9592 0.431963 29.7281 1.20086C30.497 1.96976 30.929 3.01261 30.929 4.1Z" fill="white"/>
<path d="M14.9041 16.022C14.6094 16.022 14.3213 15.9346 14.0763 15.7709C13.8312 15.6072 13.6403 15.3745 13.5275 15.1022C13.4147 14.8299 13.3852 14.5303 13.4427 14.2413C13.5002 13.9523 13.6421 13.6868 13.8505 13.4784C14.0589 13.27 14.3243 13.1281 14.6134 13.0706C14.9024 13.0131 15.202 13.0426 15.4743 13.1554C15.7465 13.2682 15.9792 13.4592 16.143 13.7042C16.3067 13.9492 16.3941 14.2373 16.3941 14.532C16.3947 14.7278 16.3566 14.9219 16.282 15.103C16.2073 15.284 16.0976 15.4486 15.9591 15.5871C15.8206 15.7255 15.6561 15.8353 15.475 15.9099C15.294 15.9846 15.0999 16.0227 14.9041 16.022Z" fill="white"/>
<path d="M20.865 16.022C20.5703 16.022 20.2822 15.9346 20.0372 15.7709C19.7922 15.6072 19.6012 15.3745 19.4884 15.1022C19.3756 14.8299 19.3461 14.5303 19.4036 14.2413C19.4611 13.9523 19.603 13.6868 19.8114 13.4784C20.0198 13.27 20.2853 13.1281 20.5743 13.0706C20.8633 13.0131 21.1629 13.0426 21.4352 13.1554C21.7075 13.2682 21.9402 13.4592 22.1039 13.7042C22.2676 13.9492 22.355 14.2373 22.355 14.532C22.3557 14.7278 22.3176 14.9219 22.2429 15.103C22.1683 15.284 22.0586 15.4486 21.9201 15.5871C21.7816 15.7255 21.6171 15.8353 21.436 15.9099C21.2549 15.9846 21.0609 16.0227 20.865 16.022Z" fill="white"/>
<path d="M8.94215 16.022C8.64745 16.022 8.35938 15.9346 8.11435 15.7709C7.86932 15.6072 7.67834 15.3745 7.56557 15.1022C7.45279 14.8299 7.42329 14.5303 7.48078 14.2413C7.53827 13.9523 7.68018 13.6868 7.88856 13.4784C8.09694 13.27 8.36243 13.1281 8.65146 13.0706C8.9405 13.0131 9.24009 13.0426 9.51235 13.1554C9.78461 13.2682 10.0173 13.4592 10.181 13.7042C10.3448 13.9492 10.4321 14.2373 10.4321 14.532C10.4328 14.7278 10.3947 14.9219 10.3201 15.103C10.2454 15.284 10.1357 15.4486 9.99721 15.5871C9.85872 15.7255 9.6942 15.8353 9.51313 15.9099C9.33205 15.9846 9.138 16.0227 8.94215 16.022Z" fill="white"/>
</svg>
