<svg width="29" height="31" viewBox="0 0 29 31" fill="none" xmlns="http://www.w3.org/2000/svg">
<path d="M24.358 14.7278C23.3265 14.4749 22.2669 14.3556 21.205 14.3728C20.6218 14.3307 20.0361 14.4047 19.4817 14.5904C18.9273 14.7762 18.4152 15.0699 17.975 15.4548C17.9249 15.4917 17.8784 15.5332 17.836 15.5788L16.368 17.1398C16.0615 17.4521 15.6958 17.7001 15.2923 17.8694C14.8888 18.0388 14.4556 18.126 14.018 18.126C13.5804 18.126 13.1472 18.0388 12.7437 17.8694C12.3402 17.7001 11.9745 17.4521 11.668 17.1398L10.2 15.5938C10.1618 15.54 10.1148 15.493 10.061 15.4548C9.16907 14.6824 8.00821 14.2935 6.831 14.3728C5.76878 14.3478 4.70808 14.4673 3.678 14.7278C0 15.7178 0 18.6388 0 21.2038V22.6418C0 26.5208 0 30.9108 8.269 30.9108H19.769C25.256 30.9108 28.038 28.1288 28.038 22.6418V21.2038C28.037 18.6388 28.037 15.7178 24.358 14.7278Z" fill="white"/>
<path opacity="0.4" d="M18.331 0H9.70602C2.87502 0 2.87502 3.632 2.87502 6.831V15.78C2.87405 15.9443 2.9112 16.1065 2.98356 16.254C3.05591 16.4015 3.1615 16.5302 3.29202 16.63C3.42433 16.7314 3.57828 16.8008 3.74185 16.8329C3.90543 16.865 4.07421 16.8589 4.23502 16.815C5.08628 16.6118 5.96004 16.5184 6.83502 16.537C7.17062 16.494 7.51154 16.5242 7.83435 16.6256C8.15715 16.7269 8.45419 16.8969 8.70502 17.124L10.111 18.608C10.6145 19.1445 11.2225 19.5722 11.8977 19.8645C12.5729 20.1568 13.3008 20.3076 14.0365 20.3076C14.7723 20.3076 15.5002 20.1568 16.1753 19.8645C16.8505 19.5722 17.4586 19.1445 17.962 18.608L19.368 17.124C19.6189 16.8969 19.9159 16.7269 20.2387 16.6256C20.5615 16.5242 20.9024 16.494 21.238 16.537C22.113 16.5184 22.9868 16.6118 23.838 16.815C23.9975 16.8591 24.1651 16.8657 24.3276 16.8343C24.4901 16.8029 24.6432 16.7344 24.7748 16.6341C24.9065 16.5338 25.0132 16.4045 25.0866 16.2561C25.16 16.1078 25.1981 15.9445 25.198 15.779V6.831C25.162 3.632 25.162 0 18.331 0Z" fill="white"/>
<path d="M16.414 12.225H11.623C11.4807 12.2259 11.3396 12.1986 11.2079 12.1445C11.0762 12.0905 10.9565 12.0108 10.8559 11.9102C10.7552 11.8095 10.6756 11.6899 10.6215 11.5582C10.5675 11.4265 10.5401 11.2853 10.541 11.143C10.5401 11.0006 10.5675 10.8595 10.6215 10.7278C10.6756 10.5961 10.7552 10.4765 10.8559 10.3758C10.9565 10.2752 11.0762 10.1955 11.2079 10.1415C11.3396 10.0874 11.4807 10.0601 11.623 10.061H16.414C16.5564 10.0601 16.6975 10.0874 16.8292 10.1415C16.9609 10.1955 17.0805 10.2752 17.1812 10.3758C17.2819 10.4765 17.3615 10.5961 17.4156 10.7278C17.4696 10.8595 17.497 11.0006 17.496 11.143C17.4914 11.4285 17.3759 11.701 17.174 11.903C16.9721 12.1049 16.6996 12.2204 16.414 12.225Z" fill="white"/>
<path d="M17.619 7.91299H10.419C10.2765 7.91418 10.1351 7.88703 10.0032 7.8331C9.87128 7.77918 9.7514 7.69955 9.65052 7.59887C9.54965 7.49818 9.46981 7.37844 9.41564 7.24662C9.36147 7.11479 9.33405 6.97351 9.33498 6.83099C9.33405 6.68864 9.36141 6.54752 9.41545 6.41583C9.4695 6.28413 9.54916 6.16448 9.64982 6.06383C9.75048 5.96317 9.87013 5.8835 10.0018 5.82946C10.1335 5.77541 10.2746 5.74806 10.417 5.74899H17.604C17.8909 5.747 18.1669 5.85909 18.3713 6.0606C18.5756 6.2621 18.6915 6.53652 18.6935 6.82349C18.6955 7.11045 18.5834 7.38645 18.3819 7.59077C18.1804 7.7951 17.9059 7.911 17.619 7.91299Z" fill="white"/>
</svg>
