<svg width="22" height="31" viewBox="0 0 22 31" fill="none" xmlns="http://www.w3.org/2000/svg">
<path opacity="0.4" d="M10.8799 0C8.95464 0.00615507 7.10898 0.769021 5.74121 2.12397C4.37344 3.47893 3.59323 5.31733 3.56894 7.24245C3.54466 9.16758 4.27825 11.0251 5.61141 12.4141C6.94458 13.8031 8.77041 14.6123 10.6949 14.667C10.8077 14.6515 10.9221 14.6515 11.0349 14.667H11.1389C13.0588 14.5961 14.8743 13.775 16.1952 12.3799C17.5162 10.9849 18.2371 9.12736 18.2032 7.20647C18.1693 5.28557 17.3832 3.45464 16.0138 2.10711C14.6444 0.759591 12.8011 0.00302682 10.8799 0V0Z" fill="white"/>
<path d="M18.732 18.778C16.359 17.3669 13.6493 16.6221 10.8885 16.6221C8.12767 16.6221 5.41797 17.3669 3.045 18.778C2.16 19.2885 1.4174 20.0131 0.885364 20.8854C0.353326 21.7576 0.0488907 22.7495 0 23.77C0.0476984 24.7848 0.35019 25.7711 0.879566 26.6382C1.40894 27.5052 2.14815 28.225 3.029 28.731C5.37886 30.2044 8.10692 30.9615 10.88 30.91C13.6531 30.9615 16.3811 30.2044 18.731 28.731C19.613 28.2186 20.3524 27.4931 20.8816 26.621C21.4108 25.7489 21.7128 24.758 21.76 23.739C21.7091 22.7252 21.4053 21.7402 20.8765 20.8737C20.3476 20.0072 19.6104 19.2868 18.732 18.778Z" fill="white"/>
</svg>
