<svg width="18" height="18" viewBox="0 0 18 18" fill="none" xmlns="http://www.w3.org/2000/svg">
<path d="M14.652 6.777V5.652C14.652 3.222 14.067 0 9 0C3.933 0 3.348 3.222 3.348 5.652V6.777C0.828 7.092 0 8.37 0 11.511V13.185C0 16.875 1.125 18 4.815 18H13.185C16.875 18 18 16.875 18 13.185V11.511C18 8.37 17.172 7.092 14.652 6.777ZM9 15.066C8.46599 15.066 7.94397 14.9076 7.49996 14.611C7.05595 14.3143 6.70988 13.8926 6.50553 13.3992C6.30117 12.9059 6.2477 12.363 6.35188 11.8393C6.45606 11.3155 6.71321 10.8344 7.09081 10.4568C7.46841 10.0792 7.94951 9.82206 8.47326 9.71788C8.997 9.6137 9.53988 9.66717 10.0332 9.87153C10.5266 10.0759 10.9483 10.4219 11.245 10.866C11.5416 11.31 11.7 11.832 11.7 12.366C11.7 13.0821 11.4155 13.7688 10.9092 14.2752C10.4028 14.7815 9.71608 15.066 9 15.066ZM4.815 6.696H4.608V5.652C4.608 3.015 5.4 1.26 9 1.26C12.6 1.26 13.392 3.06 13.392 5.652V6.705H4.815V6.696Z" fill="white"/>
</svg>
